<mxfile host="app.diagrams.net" modified="2024-10-01T02:03:07.247Z" agent="Mozilla/5.0 (Windows NT 10.0; Win64; x64) AppleWebKit/537.36 (KHTML, like Gecko) Chrome/128.0.0.0 Safari/537.36" etag="ppLWFmyIrKE306OS5e0a" version="21.8.2" type="device">
  <diagram id="C5RBs43oDa-KdzZeNtuy" name="Page-1">
    <mxGraphModel dx="1461" dy="626" grid="1" gridSize="10" guides="1" tooltips="1" connect="1" arrows="1" fold="1" page="1" pageScale="1" pageWidth="827" pageHeight="1169" math="0" shadow="0">
      <root>
        <mxCell id="WIyWlLk6GJQsqaUBKTNV-0" />
        <mxCell id="WIyWlLk6GJQsqaUBKTNV-1" parent="WIyWlLk6GJQsqaUBKTNV-0" />
        <mxCell id="IR1KvbtKjAf0okD8Cfts-0" value="Doctor" style="shape=umlActor;verticalLabelPosition=bottom;verticalAlign=top;html=1;outlineConnect=0;" vertex="1" parent="WIyWlLk6GJQsqaUBKTNV-1">
          <mxGeometry x="110" y="250" width="30" height="60" as="geometry" />
        </mxCell>
        <mxCell id="IR1KvbtKjAf0okD8Cfts-10" value="Scott Information Seller" style="shape=umlActor;verticalLabelPosition=bottom;verticalAlign=top;html=1;outlineConnect=0;fillColor=#000000;" vertex="1" parent="WIyWlLk6GJQsqaUBKTNV-1">
          <mxGeometry x="1000" y="260" width="30" height="60" as="geometry" />
        </mxCell>
        <mxCell id="IR1KvbtKjAf0okD8Cfts-33" value="Phishing links in commnication" style="ellipse;whiteSpace=wrap;html=1;fontColor=#fcfcfc;fillColor=#000000;" vertex="1" parent="WIyWlLk6GJQsqaUBKTNV-1">
          <mxGeometry x="710" y="240" width="120" height="80" as="geometry" />
        </mxCell>
        <mxCell id="IR1KvbtKjAf0okD8Cfts-39" value="" style="endArrow=classic;html=1;rounded=0;entryX=1;entryY=0.5;entryDx=0;entryDy=0;exitX=0;exitY=0;exitDx=0;exitDy=0;dashed=1;" edge="1" parent="WIyWlLk6GJQsqaUBKTNV-1" source="IR1KvbtKjAf0okD8Cfts-33" target="IR1KvbtKjAf0okD8Cfts-45">
          <mxGeometry relative="1" as="geometry">
            <mxPoint x="580" y="180" as="sourcePoint" />
            <mxPoint x="426" y="48" as="targetPoint" />
          </mxGeometry>
        </mxCell>
        <mxCell id="IR1KvbtKjAf0okD8Cfts-40" value="&amp;lt;&amp;lt;Includes&amp;gt;&amp;gt;" style="edgeLabel;resizable=0;html=1;align=center;verticalAlign=middle;" connectable="0" vertex="1" parent="IR1KvbtKjAf0okD8Cfts-39">
          <mxGeometry relative="1" as="geometry" />
        </mxCell>
        <mxCell id="IR1KvbtKjAf0okD8Cfts-45" value="Emails and Communication" style="ellipse;whiteSpace=wrap;html=1;" vertex="1" parent="WIyWlLk6GJQsqaUBKTNV-1">
          <mxGeometry x="240" y="70" width="120" height="80" as="geometry" />
        </mxCell>
        <mxCell id="IR1KvbtKjAf0okD8Cfts-55" value="Firewall and&amp;nbsp;Intrusion Detection Systems Update/Patch" style="ellipse;whiteSpace=wrap;html=1;" vertex="1" parent="WIyWlLk6GJQsqaUBKTNV-1">
          <mxGeometry x="500" y="520" width="120" height="80" as="geometry" />
        </mxCell>
        <mxCell id="IR1KvbtKjAf0okD8Cfts-58" value="" style="endArrow=classic;html=1;rounded=0;dashed=1;entryX=0.647;entryY=1.001;entryDx=0;entryDy=0;entryPerimeter=0;exitX=0;exitY=0;exitDx=0;exitDy=0;" edge="1" parent="WIyWlLk6GJQsqaUBKTNV-1" source="IR1KvbtKjAf0okD8Cfts-55" target="IR1KvbtKjAf0okD8Cfts-2">
          <mxGeometry relative="1" as="geometry">
            <mxPoint x="430" y="560" as="sourcePoint" />
            <mxPoint x="480" y="490" as="targetPoint" />
          </mxGeometry>
        </mxCell>
        <mxCell id="IR1KvbtKjAf0okD8Cfts-59" value="&amp;lt;&amp;lt;Includes&amp;gt;&amp;gt;" style="edgeLabel;resizable=0;html=1;align=center;verticalAlign=middle;" connectable="0" vertex="1" parent="IR1KvbtKjAf0okD8Cfts-58">
          <mxGeometry relative="1" as="geometry" />
        </mxCell>
        <mxCell id="IR1KvbtKjAf0okD8Cfts-63" value="Updated policies and Education&amp;nbsp;" style="ellipse;whiteSpace=wrap;html=1;" vertex="1" parent="WIyWlLk6GJQsqaUBKTNV-1">
          <mxGeometry x="650" y="50" width="120" height="80" as="geometry" />
        </mxCell>
        <mxCell id="IR1KvbtKjAf0okD8Cfts-65" value="" style="endArrow=classic;html=1;rounded=0;exitX=0.5;exitY=1;exitDx=0;exitDy=0;entryX=0.5;entryY=0;entryDx=0;entryDy=0;dashed=1;" edge="1" parent="WIyWlLk6GJQsqaUBKTNV-1" source="IR1KvbtKjAf0okD8Cfts-63" target="IR1KvbtKjAf0okD8Cfts-33">
          <mxGeometry relative="1" as="geometry">
            <mxPoint x="480" y="200" as="sourcePoint" />
            <mxPoint x="580" y="200" as="targetPoint" />
          </mxGeometry>
        </mxCell>
        <mxCell id="IR1KvbtKjAf0okD8Cfts-66" value="&amp;lt;&amp;lt;Prevents&amp;gt;&amp;gt;" style="edgeLabel;resizable=0;html=1;align=center;verticalAlign=middle;" connectable="0" vertex="1" parent="IR1KvbtKjAf0okD8Cfts-65">
          <mxGeometry relative="1" as="geometry" />
        </mxCell>
        <mxCell id="IR1KvbtKjAf0okD8Cfts-75" value="Virus Implementation" style="ellipse;whiteSpace=wrap;html=1;fontColor=#fcfcfc;fillColor=#000000;" vertex="1" parent="WIyWlLk6GJQsqaUBKTNV-1">
          <mxGeometry x="750" y="450" width="120" height="80" as="geometry" />
        </mxCell>
        <mxCell id="IR1KvbtKjAf0okD8Cfts-78" value="" style="endArrow=classic;html=1;rounded=0;entryX=0.5;entryY=0;entryDx=0;entryDy=0;exitX=0.5;exitY=1;exitDx=0;exitDy=0;dashed=1;" edge="1" parent="WIyWlLk6GJQsqaUBKTNV-1" source="IR1KvbtKjAf0okD8Cfts-33" target="IR1KvbtKjAf0okD8Cfts-75">
          <mxGeometry relative="1" as="geometry">
            <mxPoint x="670" y="220" as="sourcePoint" />
            <mxPoint x="472" y="364" as="targetPoint" />
          </mxGeometry>
        </mxCell>
        <mxCell id="IR1KvbtKjAf0okD8Cfts-79" value="&amp;lt;&amp;lt;Includes&amp;gt;&amp;gt;" style="edgeLabel;resizable=0;html=1;align=center;verticalAlign=middle;" connectable="0" vertex="1" parent="IR1KvbtKjAf0okD8Cfts-78">
          <mxGeometry relative="1" as="geometry">
            <mxPoint y="-4" as="offset" />
          </mxGeometry>
        </mxCell>
        <mxCell id="IR1KvbtKjAf0okD8Cfts-82" value="" style="endArrow=classic;html=1;rounded=0;entryX=1;entryY=0;entryDx=0;entryDy=0;exitX=0;exitY=0.5;exitDx=0;exitDy=0;dashed=1;" edge="1" parent="WIyWlLk6GJQsqaUBKTNV-1" source="IR1KvbtKjAf0okD8Cfts-63" target="IR1KvbtKjAf0okD8Cfts-45">
          <mxGeometry relative="1" as="geometry">
            <mxPoint x="480" y="50" as="sourcePoint" />
            <mxPoint x="272" y="244" as="targetPoint" />
          </mxGeometry>
        </mxCell>
        <mxCell id="IR1KvbtKjAf0okD8Cfts-83" value="&amp;lt;&amp;lt;Includes&amp;gt;&amp;gt;" style="edgeLabel;resizable=0;html=1;align=center;verticalAlign=middle;" connectable="0" vertex="1" parent="IR1KvbtKjAf0okD8Cfts-82">
          <mxGeometry relative="1" as="geometry">
            <mxPoint x="9" y="-4" as="offset" />
          </mxGeometry>
        </mxCell>
        <mxCell id="IR1KvbtKjAf0okD8Cfts-84" value="" style="endArrow=classic;html=1;rounded=0;exitX=1;exitY=0.5;exitDx=0;exitDy=0;entryX=0;entryY=1;entryDx=0;entryDy=0;dashed=1;" edge="1" parent="WIyWlLk6GJQsqaUBKTNV-1" source="IR1KvbtKjAf0okD8Cfts-55" target="IR1KvbtKjAf0okD8Cfts-75">
          <mxGeometry relative="1" as="geometry">
            <mxPoint x="500" y="520" as="sourcePoint" />
            <mxPoint x="648" y="498" as="targetPoint" />
          </mxGeometry>
        </mxCell>
        <mxCell id="IR1KvbtKjAf0okD8Cfts-85" value="&amp;lt;&amp;lt;Detects&amp;gt;&amp;gt;" style="edgeLabel;resizable=0;html=1;align=center;verticalAlign=middle;" connectable="0" vertex="1" parent="IR1KvbtKjAf0okD8Cfts-84">
          <mxGeometry relative="1" as="geometry">
            <mxPoint x="-13" y="1" as="offset" />
          </mxGeometry>
        </mxCell>
        <mxCell id="IR1KvbtKjAf0okD8Cfts-2" value="Open EMR Charting system" style="ellipse;whiteSpace=wrap;html=1;" vertex="1" parent="WIyWlLk6GJQsqaUBKTNV-1">
          <mxGeometry x="240" y="420" width="120" height="80" as="geometry" />
        </mxCell>
        <mxCell id="IR1KvbtKjAf0okD8Cfts-100" value="Man in the Middle listening" style="ellipse;whiteSpace=wrap;html=1;fontColor=#fcfcfc;fillColor=#000000;" vertex="1" parent="WIyWlLk6GJQsqaUBKTNV-1">
          <mxGeometry x="590" y="370" width="120" height="80" as="geometry" />
        </mxCell>
        <mxCell id="IR1KvbtKjAf0okD8Cfts-101" value="" style="endArrow=classic;html=1;rounded=0;entryX=0;entryY=0;entryDx=0;entryDy=0;dashed=1;" edge="1" parent="WIyWlLk6GJQsqaUBKTNV-1" target="IR1KvbtKjAf0okD8Cfts-75">
          <mxGeometry relative="1" as="geometry">
            <mxPoint x="702" y="438" as="sourcePoint" />
            <mxPoint x="940" y="410" as="targetPoint" />
          </mxGeometry>
        </mxCell>
        <mxCell id="IR1KvbtKjAf0okD8Cfts-102" value="&amp;lt;&amp;lt;Includes&amp;gt;&amp;gt;" style="edgeLabel;resizable=0;html=1;align=center;verticalAlign=middle;" connectable="0" vertex="1" parent="IR1KvbtKjAf0okD8Cfts-101">
          <mxGeometry relative="1" as="geometry">
            <mxPoint y="-4" as="offset" />
          </mxGeometry>
        </mxCell>
        <mxCell id="IR1KvbtKjAf0okD8Cfts-103" value="Encrypt communication" style="ellipse;whiteSpace=wrap;html=1;" vertex="1" parent="WIyWlLk6GJQsqaUBKTNV-1">
          <mxGeometry x="420" y="240" width="120" height="80" as="geometry" />
        </mxCell>
        <mxCell id="IR1KvbtKjAf0okD8Cfts-104" value="" style="endArrow=classic;html=1;rounded=0;entryX=0.5;entryY=1;entryDx=0;entryDy=0;exitX=0;exitY=0;exitDx=0;exitDy=0;dashed=1;" edge="1" parent="WIyWlLk6GJQsqaUBKTNV-1" source="IR1KvbtKjAf0okD8Cfts-103" target="IR1KvbtKjAf0okD8Cfts-45">
          <mxGeometry relative="1" as="geometry">
            <mxPoint x="350" y="230" as="sourcePoint" />
            <mxPoint x="232" y="78" as="targetPoint" />
          </mxGeometry>
        </mxCell>
        <mxCell id="IR1KvbtKjAf0okD8Cfts-105" value="&amp;lt;&amp;lt;Includes&amp;gt;&amp;gt;" style="edgeLabel;resizable=0;html=1;align=center;verticalAlign=middle;" connectable="0" vertex="1" parent="IR1KvbtKjAf0okD8Cfts-104">
          <mxGeometry relative="1" as="geometry">
            <mxPoint x="-1" y="4" as="offset" />
          </mxGeometry>
        </mxCell>
        <mxCell id="IR1KvbtKjAf0okD8Cfts-106" value="" style="endArrow=classic;html=1;rounded=0;entryX=0;entryY=0;entryDx=0;entryDy=0;exitX=1;exitY=1;exitDx=0;exitDy=0;dashed=1;" edge="1" parent="WIyWlLk6GJQsqaUBKTNV-1" source="IR1KvbtKjAf0okD8Cfts-103" target="IR1KvbtKjAf0okD8Cfts-100">
          <mxGeometry relative="1" as="geometry">
            <mxPoint x="360" y="250" as="sourcePoint" />
            <mxPoint x="420" y="190" as="targetPoint" />
          </mxGeometry>
        </mxCell>
        <mxCell id="IR1KvbtKjAf0okD8Cfts-107" value="&amp;lt;&amp;lt;Prevents&amp;gt;&amp;gt;" style="edgeLabel;resizable=0;html=1;align=center;verticalAlign=middle;" connectable="0" vertex="1" parent="IR1KvbtKjAf0okD8Cfts-106">
          <mxGeometry relative="1" as="geometry">
            <mxPoint x="-5" y="-5" as="offset" />
          </mxGeometry>
        </mxCell>
        <mxCell id="IR1KvbtKjAf0okD8Cfts-110" value="" style="endArrow=classic;html=1;rounded=0;entryX=0.5;entryY=0;entryDx=0;entryDy=0;exitX=0;exitY=1;exitDx=0;exitDy=0;dashed=1;" edge="1" parent="WIyWlLk6GJQsqaUBKTNV-1" source="IR1KvbtKjAf0okD8Cfts-103" target="IR1KvbtKjAf0okD8Cfts-2">
          <mxGeometry relative="1" as="geometry">
            <mxPoint x="300" y="250" as="sourcePoint" />
            <mxPoint x="242" y="198" as="targetPoint" />
          </mxGeometry>
        </mxCell>
        <mxCell id="IR1KvbtKjAf0okD8Cfts-111" value="&amp;lt;&amp;lt;Includes&amp;gt;&amp;gt;" style="edgeLabel;resizable=0;html=1;align=center;verticalAlign=middle;" connectable="0" vertex="1" parent="IR1KvbtKjAf0okD8Cfts-110">
          <mxGeometry relative="1" as="geometry">
            <mxPoint x="-1" y="4" as="offset" />
          </mxGeometry>
        </mxCell>
        <mxCell id="IR1KvbtKjAf0okD8Cfts-117" value="" style="endArrow=classic;html=1;rounded=0;exitX=0.5;exitY=0;exitDx=0;exitDy=0;entryX=0;entryY=1;entryDx=0;entryDy=0;dashed=1;" edge="1" parent="WIyWlLk6GJQsqaUBKTNV-1" source="IR1KvbtKjAf0okD8Cfts-55" target="IR1KvbtKjAf0okD8Cfts-100">
          <mxGeometry relative="1" as="geometry">
            <mxPoint x="540" y="460" as="sourcePoint" />
            <mxPoint x="610" y="480" as="targetPoint" />
          </mxGeometry>
        </mxCell>
        <mxCell id="IR1KvbtKjAf0okD8Cfts-118" value="&amp;lt;&amp;lt;Prevents&amp;gt;&amp;gt;" style="edgeLabel;resizable=0;html=1;align=center;verticalAlign=middle;" connectable="0" vertex="1" parent="IR1KvbtKjAf0okD8Cfts-117">
          <mxGeometry relative="1" as="geometry">
            <mxPoint x="-13" y="1" as="offset" />
          </mxGeometry>
        </mxCell>
        <mxCell id="IR1KvbtKjAf0okD8Cfts-119" value="" style="endArrow=none;html=1;rounded=0;entryX=0;entryY=0.5;entryDx=0;entryDy=0;" edge="1" parent="WIyWlLk6GJQsqaUBKTNV-1" target="IR1KvbtKjAf0okD8Cfts-45">
          <mxGeometry width="50" height="50" relative="1" as="geometry">
            <mxPoint x="140" y="270" as="sourcePoint" />
            <mxPoint x="190" y="220" as="targetPoint" />
          </mxGeometry>
        </mxCell>
        <mxCell id="IR1KvbtKjAf0okD8Cfts-120" value="" style="endArrow=none;html=1;rounded=0;entryX=0;entryY=0;entryDx=0;entryDy=0;" edge="1" parent="WIyWlLk6GJQsqaUBKTNV-1" target="IR1KvbtKjAf0okD8Cfts-2">
          <mxGeometry width="50" height="50" relative="1" as="geometry">
            <mxPoint x="140" y="270" as="sourcePoint" />
            <mxPoint x="190" y="220" as="targetPoint" />
          </mxGeometry>
        </mxCell>
        <mxCell id="IR1KvbtKjAf0okD8Cfts-121" value="" style="endArrow=none;html=1;rounded=0;exitX=1;exitY=0.5;exitDx=0;exitDy=0;entryX=0;entryY=0.3333333333333333;entryDx=0;entryDy=0;entryPerimeter=0;" edge="1" parent="WIyWlLk6GJQsqaUBKTNV-1" source="IR1KvbtKjAf0okD8Cfts-33" target="IR1KvbtKjAf0okD8Cfts-10">
          <mxGeometry width="50" height="50" relative="1" as="geometry">
            <mxPoint x="1020" y="320" as="sourcePoint" />
            <mxPoint x="1020" y="250" as="targetPoint" />
          </mxGeometry>
        </mxCell>
      </root>
    </mxGraphModel>
  </diagram>
</mxfile>
